<svg id="fit4faith" enable-background="new 0 0 512 512" height="512" viewBox="0 0 512 512" width="512" xmlns="http://www.w3.org/2000/svg">
<g>
<g><path d="m454.965 83.152c-54.817-55.197-144.002-55.314-198.965-.352-54.963-54.963-144.148-54.846-198.965.352-54.695 55.075-53.457 144.456 1.428 199.341l180.985 180.985c9.141 9.141 23.961 9.141 33.102 0l180.985-180.985c54.887-54.885 56.125-144.266 1.43-199.341z" fill="#fd8087"/></g>
<g><path d="m454.965 83.152c-17.316-17.436-38.064-29.37-60.077-35.814 42.249 56.61 36.791 137.532-14.605 188.928l-184.023 184.024 43.189 43.189c9.141 9.141 23.962 9.141 33.102 0l180.985-180.985c54.886-54.887 56.124-144.267 1.429-199.342z" fill="#fe646f"/></g>
<g><path d="m153.14 334.5v-59.16q18.6-36.07 37.57-72.91t37.2-72.92h95.61v145.83h35.34v59.16h-35.34v48h-63.61v-48zm67-59.16h39.81v-84.81q-9.69 20.83-19.91 42.4t-19.94 42.41z" fill="#fff"/></g>
</g>
</svg>