<svg id="Logo_4" enable-background="new 0 0 512 512" height="512" viewBox="0 0 512 512" width="512" xmlns="http://www.w3.org/2000/svg">
<g>
<g><path d="m454.965 83.152c-54.817-55.197-144.002-55.314-198.965-.352-54.963-54.963-144.148-54.846-198.965.352-54.695 55.075-53.457 144.456 1.428 199.341l180.985 180.985c9.141 9.141 23.961 9.141 33.102 0l180.985-180.985c54.887-54.885 56.125-144.266 1.43-199.341z" fill="#fd8087"/></g>
<g><path d="m454.965 83.152c-17.316-17.436-38.064-29.37-60.077-35.814 42.249 56.61 36.791 137.532-14.605 188.928l-184.023 184.024 43.189 43.189c9.141 9.141 23.962 9.141 33.102 0l180.985-180.985c54.886-54.887 56.124-144.267 1.429-199.342z" fill="#fe646f"/></g>
<g><path d="m325.724 169.124h-54.114v-43.707c0-4.598-3.727-8.325-8.325-8.325h-14.569c-4.598 0-8.325 3.727-8.325 8.325v43.707h-54.114c-4.598 0-8.325 3.727-8.325 8.325v14.569c0 4.598 3.727 8.325 8.325 8.325h54.114v126.959c0 4.598 3.727 8.325 8.325 8.325h14.569c4.598 0 8.325-3.727 8.325-8.325v-126.959h54.114c4.598 0 8.325-3.727 8.325-8.325v-14.569c0-4.598-3.728-8.325-8.325-8.325z" fill="#fbfbfb"  stroke="#faecec"/></g>
<g><path d="m325.724 169.124h-48.148c-1.335 3.911-2.822 7.828-4.477 11.737-8.391 19.821-19.826 36.807-32.708 49.882v96.56c0 4.598 3.727 8.325 8.325 8.325h14.569c4.598 0 8.325-3.727 8.325-8.325v-126.96h54.114c4.598 0 8.325-3.727 8.325-8.325v-14.569c0-4.598-3.728-8.325-8.325-8.325z" fill="#faecec"/></g>
</g>
</svg>